<svg xmlns="http://www.w3.org/2000/svg" width="300" height="360">
    <path d="m150,40 l-18,50 l-30,-18, l25,60
             l-60,-20 l60,80 l-100,-15 l123,120
             l123,-120 l-100,15 l60,-80 l-60,20
             l25,-60 l-30,18 l-18,-50" style="fill:#a52a2a; stroke:#850a0a" />
             <!-- stroke="#850a0a" fill="#a52a2a" /> -->
    <g stroke="#f55a5a" stroke-linecap="round" stroke-width="4">
        <line x1="150" x2="150" y1="60" y2="285" />
        <line x1="52" x2="150" y1="190" y2="250" />
        <line x1="248" x2="150" y1="190" y2="250" />
        <line x1="150" x2="85" y1="190" y2="125" />
        <line x1="150" x2="215" y1="190" y2="125" />
        <line x1="150" x2="113" y1="140" y2="86" />
        <line x1="150" x2="187" y1="140" y2="86" />
    </g>
    <line x1="150" x2="150" y1="297" y2="360" stroke="#650808" stroke-width="2" stroke-linecap="round" />
</svg>